<?xml version="1.0" standalone="no"?>
<!DOCTYPE svg PUBLIC "-//W3C//DTD SVG 1.1//EN" "http://www.w3.org/Graphics/SVG/1.1/DTD/svg11.dtd" >
<svg xmlns="http://www.w3.org/2000/svg" xmlns:xlink="http://www.w3.org/1999/xlink" version="1.1">
<metadata></metadata>
<defs>
<font id="upheaval_proregular" horiz-adv-x="1228" >
<font-face units-per-em="2048" ascent="1638" descent="-410" />
<missing-glyph horiz-adv-x="512" />
<glyph horiz-adv-x="0" />
<glyph horiz-adv-x="682" />
<glyph unicode=" "  horiz-adv-x="512" />
<glyph unicode="&#x09;" horiz-adv-x="512" />
<glyph unicode="&#xa0;" horiz-adv-x="512" />
<glyph unicode="!" horiz-adv-x="512" d="M0 0v205h410v-205h-410zM0 307v717h410v-717h-410z" />
<glyph unicode="&#x22;" horiz-adv-x="819" d="M0 819v205h307v-205h-307zM410 819v205h307v-205h-307z" />
<glyph unicode="#" d="M0 205v205h102v204h-102v205h102v205h410v-205h102v205h410v-205h102v-205h-102v-204h102v-205h-102v-205h-410v205h-102v-205h-410v205h-102zM512 410h102v204h-102v-204z" />
<glyph unicode="$" d="M0 0v205h717v205h-615v102h-102v410h102v102h308v102h307v-102h409v-205h-716v-205h614v-102h102v-410h-102v-102h-307v-98h-307v98h-410z" />
<glyph unicode="%" horiz-adv-x="1331" d="M0 0v205h102v102h103v103h102v102h103v102h102v103h102v102h103v103h102v102h410v-205h-103v-102h-102v-103h-102v-102h-103v-102h-102v-103h-103v-102h-102v-103h-102v-102h-410zM0 717v205h102v102h205v-102h103v-205h-103v-103h-205v103h-102zM819 102v205h103v103 h204v-103h103v-205h-103v-102h-204v102h-103z" />
<glyph unicode="&#x26;" d="M0 102v820h102v102h308v102h307v-102h409v-205h-716v-205h307v-204h-307v-205h716v-205h-409v-98h-307v98h-308v102h-102z" />
<glyph unicode="(" horiz-adv-x="819" d="M0 102v820h102v102h615v-205h-307v-614h307v-205h-615v102h-102z" />
<glyph unicode=")" horiz-adv-x="819" d="M0 0v205h307v614h-307v205h614v-102h103v-820h-103v-102h-614z" />
<glyph unicode="*" horiz-adv-x="1024" d="M0 717v205h205v-103h102v103h103v102h102v-102h102v-103h103v103h205v-205h-103v-103h-102v-102h102v-205h-205v103h-102v102h-102v-102h-103v-103h-205v205h103v102h-103v103h-102z" />
<glyph unicode="+" d="M0 410v204h410v205h307v-205h409v-204h-409v-205h-307v205h-410z" />
<glyph unicode="," horiz-adv-x="409" d="M0 -205v410h307v-410h-307z" />
<glyph unicode="-" d="M0 410v204h1126v-204h-1126z" />
<glyph unicode="." horiz-adv-x="409" d="M0 0v205h307v-205h-307z" />
<glyph unicode="/" horiz-adv-x="1331" d="M0 0v205h102v102h103v103h102v102h103v102h102v103h102v102h103v103h102v102h410v-205h-103v-102h-102v-103h-102v-102h-103v-102h-102v-103h-103v-102h-102v-103h-102v-102h-410z" />
<glyph unicode="0" d="M0 102v820h102v102h922v-102h102v-820h-102v-102h-922v102h-102zM410 205h307v614h-307v-614z" />
<glyph unicode="1" horiz-adv-x="512" d="M0 0v1024h410v-1024h-410z" />
<glyph unicode="2" d="M0 0v512h102v102h615v205h-717v205h1024v-102h102v-410h-102v-102h-614v-205h716v-205h-1126z" />
<glyph unicode="3" d="M0 0v205h717v205h-307v204h307v205h-717v205h1024v-102h102v-308h-102v-204h102v-308h-102v-102h-1024z" />
<glyph unicode="4" d="M0 512v512h410v-410h307v410h409v-1024h-409v410h-615v102h-102z" />
<glyph unicode="5" d="M0 0v205h717v205h-615v102h-102v512h1126v-205h-716v-205h614v-102h102v-410h-102v-102h-1024z" />
<glyph unicode="6" d="M0 102v820h102v102h1024v-205h-716v-205h614v-102h102v-410h-102v-102h-922v102h-102zM410 205h307v205h-307v-205z" />
<glyph unicode="7" d="M0 0v205h102v102h103v103h102v102h103v102h102v103h102v102h-614v205h1126v-307h-102v-103h-102v-102h-103v-102h-102v-103h-103v-102h-102v-103h-102v-102h-410z" />
<glyph unicode="8" d="M0 102v308h102v204h-102v308h102v102h922v-102h102v-308h-102v-204h102v-308h-102v-102h-922v102h-102zM410 205h307v205h-307v-205zM410 614h307v205h-307v-205z" />
<glyph unicode="9" d="M0 512v410h102v102h922v-102h102v-922h-409v410h-615v102h-102zM410 614h307v205h-307v-205z" />
<glyph unicode=":" horiz-adv-x="409" d="M0 0v205h307v-205h-307zM0 819v205h307v-205h-307z" />
<glyph unicode=";" horiz-adv-x="409" d="M0 -205v410h307v-410h-307zM0 819v205h307v-205h-307z" />
<glyph unicode="&#x3c;" horiz-adv-x="921" d="M0 410v204h102v103h103v102h102v103h103v102h409v-205h-102v-102h-103v-103h-102v-204h102v-103h103v-102h102v-205h-409v102h-103v103h-102v102h-103v103h-102z" />
<glyph unicode="=" d="M0 205v205h1126v-205h-1126zM0 614v205h1126v-205h-1126z" />
<glyph unicode="&#x3e;" horiz-adv-x="921" d="M0 0v205h102v102h103v103h102v204h-102v103h-103v102h-102v205h410v-102h102v-103h102v-102h103v-103h102v-204h-102v-103h-103v-102h-102v-103h-102v-102h-410z" />
<glyph unicode="?" d="M0 614v308h102v102h922v-102h102v-410h-102v-102h-307v-103h-307v205h102v102h205v205h-307v-205h-410zM410 0v205h307v-205h-307z" />
<glyph unicode="@" horiz-adv-x="1433" d="M0 102v820h102v102h1127v-102h102v-512h-102v-103h-717v410h307v-307h103v409h-512v-614h921v-103h-102v-102h-1127v102h-102zM614 410h103v204h-103v-204z" />
<glyph unicode="A" d="M0 0v922h102v102h922v-102h102v-922h-409v410h-307v-410h-410zM410 614h307v205h-307v-205z" />
<glyph unicode="B" d="M0 0v1024h1024v-102h102v-308h-102v-204h102v-308h-102v-102h-1024zM410 205h307v205h-307v-205zM410 614h307v205h-307v-205z" />
<glyph unicode="C" d="M0 102v820h102v102h922v-102h102v-308h-409v205h-307v-614h307v205h409v-308h-102v-102h-922v102h-102z" />
<glyph unicode="D" d="M0 0v1024h922v-102h102v-103h102v-614h-102v-103h-102v-102h-922zM410 205h204v102h103v410h-103v102h-204v-614z" />
<glyph unicode="E" d="M0 102v820h102v102h1024v-205h-716v-205h307v-204h-307v-205h716v-205h-1024v102h-102z" />
<glyph unicode="F" d="M0 0v922h102v102h1024v-205h-716v-205h307v-204h-307v-410h-410z" />
<glyph unicode="G" d="M0 102v820h102v102h1024v-205h-716v-614h307v205h-205v204h512v-102h102v-410h-102v-102h-922v102h-102z" />
<glyph unicode="H" d="M0 0v1024h410v-410h307v410h409v-1024h-409v410h-307v-410h-410z" />
<glyph unicode="I" horiz-adv-x="1126" d="M0 0v205h307v614h-307v205h1024v-205h-307v-614h307v-205h-1024z" />
<glyph unicode="J" d="M0 102v308h410v-205h307v819h409v-922h-102v-102h-922v102h-102z" />
<glyph unicode="K" d="M0 0v1024h410v-307h102v102h102v103h103v102h409v-205h-102v-102h-102v-103h-103v-204h103v-103h102v-102h102v-205h-409v102h-103v103h-102v102h-102v-307h-410z" />
<glyph unicode="L" d="M0 0v1024h410v-819h716v-205h-1126z" />
<glyph unicode="M" horiz-adv-x="1433" d="M0 0v1024h410v-102h102v-103h102v-102h103v102h102v103h103v102h409v-1024h-409v512h-103v-102h-102v-103h-103v103h-102v102h-102v-512h-410z" />
<glyph unicode="N" d="M0 0v1024h410v-102h102v-103h102v-102h103v307h409v-1024h-409v307h-103v103h-102v102h-102v-512h-410z" />
<glyph unicode="O" d="M0 102v820h102v102h922v-102h102v-820h-102v-102h-922v102h-102zM410 205h307v614h-307v-614z" />
<glyph unicode="P" d="M0 0v1024h1024v-102h102v-410h-102v-102h-614v-410h-410zM410 614h307v205h-307v-205z" />
<glyph unicode="Q" d="M0 102v820h102v102h922v-102h102v-820h-102v-102h-307v-201h-307v201h-308v102h-102zM410 205h307v614h-307v-614z" />
<glyph unicode="R" d="M0 0v1024h1024v-102h102v-308h-102v-204h102v-410h-409v410h-307v-410h-410zM410 614h307v205h-307v-205z" />
<glyph unicode="S" d="M0 0v205h717v205h-615v102h-102v410h102v102h1024v-205h-716v-205h614v-102h102v-410h-102v-102h-1024z" />
<glyph unicode="T" horiz-adv-x="1126" d="M0 819v205h1024v-205h-307v-819h-410v819h-307z" />
<glyph unicode="U" d="M0 102v922h410v-819h307v819h409v-922h-102v-102h-922v102h-102z" />
<glyph unicode="V" d="M0 0v1024h410v-717h102v103h102v102h103v512h409v-614h-102v-103h-102v-102h-103v-103h-102v-102h-717z" />
<glyph unicode="W" horiz-adv-x="1433" d="M0 0v1024h410v-512h102v102h102v103h103v-103h102v-102h103v512h409v-1024h-409v102h-103v103h-102v102h-103v-102h-102v-103h-102v-102h-410z" />
<glyph unicode="X" d="M0 0v307h102v103h103v204h-103v103h-102v307h307v-102h103v-103h102v-102h102v102h103v103h102v102h307v-307h-102v-103h-102v-204h102v-103h102v-307h-307v102h-102v103h-103v102h-102v-102h-102v-103h-103v-102h-307z" />
<glyph unicode="Y" horiz-adv-x="1331" d="M0 614v410h410v-307h102v-103h205v103h102v307h410v-410h-103v-102h-102v-102h-205v-410h-409v410h-205v102h-103v102h-102z" />
<glyph unicode="Z" d="M0 0v205h102v102h103v103h102v102h103v102h102v103h102v102h-614v205h1126v-307h-102v-103h-102v-102h-103v-102h-102v-103h-103v-102h512v-205h-1126z" />
<glyph unicode="[" horiz-adv-x="819" d="M0 0v1024h717v-205h-307v-614h307v-205h-717z" />
<glyph unicode="\" horiz-adv-x="1331" d="M0 819v205h410v-102h102v-103h102v-102h103v-103h102v-102h103v-102h102v-103h102v-102h103v-205h-410v102h-102v103h-103v102h-102v103h-102v102h-103v102h-102v103h-103v102h-102z" />
<glyph unicode="]" horiz-adv-x="819" d="M0 0v205h307v614h-307v205h717v-1024h-717z" />
<glyph unicode="^" horiz-adv-x="1024" d="M0 512v205h102v102h103v103h102v102h307v-102h103v-103h102v-102h103v-205h-308v102h-102v103h-102v-103h-103v-102h-307z" />
<glyph unicode="_" d="M0 -98h1126v-205h-1126v205z" />
<glyph unicode="`" d="M307 1331v205h205v-102h102v-103h103v-205h-205v103h-102v102h-103z" />
<glyph unicode="a" d="M0 0v922h102v102h922v-102h102v-922h-409v410h-307v-410h-410zM410 614h307v205h-307v-205z" />
<glyph unicode="b" d="M0 0v1024h1024v-102h102v-308h-102v-204h102v-308h-102v-102h-1024zM410 205h307v205h-307v-205zM410 614h307v205h-307v-205z" />
<glyph unicode="c" d="M0 102v820h102v102h922v-102h102v-308h-409v205h-307v-614h307v205h409v-308h-102v-102h-922v102h-102z" />
<glyph unicode="d" d="M0 0v1024h922v-102h102v-103h102v-614h-102v-103h-102v-102h-922zM410 205h204v102h103v410h-103v102h-204v-614z" />
<glyph unicode="e" d="M0 102v820h102v102h1024v-205h-716v-205h307v-204h-307v-205h716v-205h-1024v102h-102z" />
<glyph unicode="f" d="M0 0v922h102v102h1024v-205h-716v-205h307v-204h-307v-410h-410z" />
<glyph unicode="g" d="M0 102v820h102v102h1024v-205h-716v-614h307v205h-205v204h512v-102h102v-410h-102v-102h-922v102h-102z" />
<glyph unicode="h" d="M0 0v1024h410v-410h307v410h409v-1024h-409v410h-307v-410h-410z" />
<glyph unicode="i" horiz-adv-x="1126" d="M0 0v205h307v614h-307v205h1024v-205h-307v-614h307v-205h-1024z" />
<glyph unicode="j" d="M0 102v308h410v-205h307v819h409v-922h-102v-102h-922v102h-102z" />
<glyph unicode="k" d="M0 0v1024h410v-307h102v102h102v103h103v102h409v-205h-102v-102h-102v-103h-103v-204h103v-103h102v-102h102v-205h-409v102h-103v103h-102v102h-102v-307h-410z" />
<glyph unicode="l" d="M0 0v1024h410v-819h716v-205h-1126z" />
<glyph unicode="m" horiz-adv-x="1433" d="M0 0v1024h410v-102h102v-103h102v-102h103v102h102v103h103v102h409v-1024h-409v512h-103v-102h-102v-103h-103v103h-102v102h-102v-512h-410z" />
<glyph unicode="n" d="M0 0v1024h410v-102h102v-103h102v-102h103v307h409v-1024h-409v307h-103v103h-102v102h-102v-512h-410z" />
<glyph unicode="o" d="M0 102v820h102v102h922v-102h102v-820h-102v-102h-922v102h-102zM410 205h307v614h-307v-614z" />
<glyph unicode="p" d="M0 0v1024h1024v-102h102v-410h-102v-102h-614v-410h-410zM410 614h307v205h-307v-205z" />
<glyph unicode="q" d="M0 102v820h102v102h922v-102h102v-820h-102v-102h-307v-201h-307v201h-308v102h-102zM410 205h307v614h-307v-614z" />
<glyph unicode="r" d="M0 0v1024h1024v-102h102v-308h-102v-204h102v-410h-409v410h-307v-410h-410zM410 614h307v205h-307v-205z" />
<glyph unicode="s" d="M0 0v205h717v205h-615v102h-102v410h102v102h1024v-205h-716v-205h614v-102h102v-410h-102v-102h-1024z" />
<glyph unicode="t" horiz-adv-x="1126" d="M0 819v205h1024v-205h-307v-819h-410v819h-307z" />
<glyph unicode="u" d="M0 102v922h410v-819h307v819h409v-922h-102v-102h-922v102h-102z" />
<glyph unicode="v" d="M0 0v1024h410v-717h102v103h102v102h103v512h409v-614h-102v-103h-102v-102h-103v-103h-102v-102h-717z" />
<glyph unicode="w" horiz-adv-x="1433" d="M0 0v1024h410v-512h102v102h102v103h103v-103h102v-102h103v512h409v-1024h-409v102h-103v103h-102v102h-103v-102h-102v-103h-102v-102h-410z" />
<glyph unicode="x" d="M0 0v307h102v103h103v204h-103v103h-102v307h307v-102h103v-103h102v-102h102v102h103v103h102v102h307v-307h-102v-103h-102v-204h102v-103h102v-307h-307v102h-102v103h-103v102h-102v-102h-102v-103h-103v-102h-307z" />
<glyph unicode="y" horiz-adv-x="1331" d="M0 614v410h410v-307h102v-103h205v103h102v307h410v-410h-103v-102h-102v-102h-205v-410h-409v410h-205v102h-103v102h-102z" />
<glyph unicode="z" d="M0 0v205h102v102h103v103h102v102h103v102h102v103h102v102h-614v205h1126v-307h-102v-103h-102v-102h-103v-102h-102v-103h-103v-102h512v-205h-1126z" />
<glyph unicode="{" horiz-adv-x="921" d="M0 410v204h102v308h103v102h614v-205h-307v-205h-102v-204h102v-205h307v-205h-614v102h-103v308h-102z" />
<glyph unicode="|" horiz-adv-x="409" d="M0 -102v1228h307v-1228h-307z" />
<glyph unicode="}" horiz-adv-x="921" d="M0 0v205h307v205h103v204h-103v205h-307v205h614v-102h103v-308h102v-204h-102v-308h-103v-102h-614z" />
<glyph unicode="~" horiz-adv-x="1536" d="M0 205v409h102v103h103v102h512v-102h102v-103h103v-102h102v307h410v-409h-103v-103h-102v-102h-512v102h-103v103h-102v102h-102v-307h-410z" />
<glyph unicode="&#xa1;" horiz-adv-x="512" d="M0 0v717h410v-717h-410zM0 819v205h410v-205h-410z" />
<glyph unicode="&#xa2;" d="M0 102v820h102v102h308v205h307v-205h307v-102h102v-308h-409v205h-307v-614h307v205h409v-308h-102v-102h-307v-205h-307v205h-308v102h-102z" />
<glyph unicode="&#xa3;" horiz-adv-x="1331" d="M0 0v205h102v205h-102v204h102v205h103v103h102v102h819v-102h103v-205h-103v-103h-204v103h-103v102h-205v-102h-102v-103h102v-204h-102v-205h307v102h410v-205h-205v-102h-1024z" />
<glyph unicode="&#xa4;" horiz-adv-x="1024" d="M0 0v205h205v102h-103v410h103v102h-205v205h205v-205h102v103h410v-103h102v205h205v-205h-205v-102h103v-410h-103v-102h205v-205h-205v205h-102v-103h-410v103h-102v-205h-205zM410 410h204v204h-204v-204z" />
<glyph unicode="&#xa5;" horiz-adv-x="1331" d="M0 614v410h410v-307h102v-103h205v103h102v307h410v-410h-103v-102h-102v-102h-205v-103h307v-205h-307v-102h-409v102h-308v205h308v103h-205v102h-103v102h-102z" />
<glyph unicode="&#xa6;" horiz-adv-x="409" d="M0 -102v512h307v-512h-307zM0 614v512h307v-512h-307z" />
<glyph unicode="&#xa7;" d="M0 0h717v205h-615v102h-102v819h102v103h1024v-205h-716v-205h614v-102h102v-819h-102v-103h-1024v205zM410 410h307v204h-307v-204z" />
<glyph unicode="&#xa8;" d="M102 1229v307h308v-307h-308zM717 1229v307h307v-307h-307z" />
<glyph unicode="&#xa9;" horiz-adv-x="1536" d="M0 102v820h102v102h1229v-102h103v-820h-103v-102h-1229v102h-102zM410 205h614v614h-614v-614zM512 410v204h102v103h308v-103h-205v-204h205v-103h-308v103h-102z" />
<glyph unicode="&#xaa;" horiz-adv-x="716" d="M0 512v307h410v103h-410v102h614v-512h-614zM205 614h205v103h-205v-103z" />
<glyph unicode="&#xab;" horiz-adv-x="1126" d="M0 410v204h102v103h103v102h102v103h205v-205h-102v-103h-103v-204h103v-103h102v-205h-205v103h-102v102h-103v103h-102zM512 410v204h102v103h103v102h102v103h205v-205h-102v-103h-103v-204h103v-103h102v-205h-205v103h-102v102h-103v103h-102z" />
<glyph unicode="&#xac;" horiz-adv-x="819" d="M0 410v204h717v-409h-307v205h-410z" />
<glyph unicode="&#xad;" horiz-adv-x="512" d="M0 410v204h410v-204h-410z" />
<glyph unicode="&#xae;" horiz-adv-x="1536" d="M0 102v820h102v102h1229v-102h103v-820h-103v-102h-1229v102h-102zM410 205h614v614h-614v-614zM512 307v410h410v-205h-103v-102h103v-103h-103v103h-102v-103h-205zM717 512h102v102h-102v-102z" />
<glyph unicode="&#xaf;" d="M0 1126v205h1126v-205h-1126z" />
<glyph unicode="&#xb0;" d="M205 1126v410h717v-410h-717zM410 1229h307v205h-307v-205z" />
<glyph unicode="&#xb1;" d="M0 0v205h1126v-205h-1126zM0 614v205h410v205h307v-205h409v-205h-409v-204h-307v204h-410z" />
<glyph unicode="&#xb2;" horiz-adv-x="716" d="M0 512v307h410v103h-410v102h614v-307h-409v-103h409v-102h-614z" />
<glyph unicode="&#xb3;" horiz-adv-x="716" d="M0 512v102h410v103h-410v102h410v103h-410v102h614v-512h-614z" />
<glyph unicode="&#xb4;" d="M410 1126v205h102v103h102v102h205v-205h-102v-102h-103v-103h-204z" />
<glyph unicode="&#xb5;" d="M0 -205v1229h410v-819h307v819h409v-922h-102v-102h-614v-205h-410z" />
<glyph unicode="&#xb6;" horiz-adv-x="921" d="M0 512v410h102v102h717v-205h-102v-819h-205v819h-102v-819h-205v410h-103v102h-102z" />
<glyph unicode="&#xb7;" horiz-adv-x="512" d="M0 307v410h410v-410h-410z" />
<glyph unicode="&#xb8;" d="M307 -205h103v205h307v-205h-103v-102h-307v102z" />
<glyph unicode="&#xb9;" horiz-adv-x="307" d="M0 512v512h205v-512h-205z" />
<glyph unicode="&#xba;" horiz-adv-x="716" d="M0 512v512h614v-512h-614zM205 614h205v308h-205v-308z" />
<glyph unicode="&#xbb;" horiz-adv-x="1126" d="M0 102v205h102v103h103v204h-103v103h-102v205h205v-103h102v-102h103v-103h102v-204h-102v-103h-103v-102h-102v-103h-205zM512 102v205h102v103h103v204h-103v103h-102v205h205v-103h102v-102h103v-103h102v-204h-102v-103h-103v-102h-102v-103h-205z" />
<glyph unicode="&#xbc;" horiz-adv-x="1331" d="M0 0v205h102v102h103v103h102v102h103v102h102v103h102v102h103v103h102v102h410v-205h-103v-102h-102v-103h-102v-102h-103v-102h103v-205h102v205h205v-410h-205v102h-205v308h-102v-103h-103v-102h-102v-103h-102v-102h-410zM0 819v103h102v102h205v-410h-205v205 h-102z" />
<glyph unicode="&#xbd;" horiz-adv-x="1331" d="M0 0v205h102v102h103v103h102v102h103v102h102v103h102v102h103v103h102v102h410v-205h-103v-102h-102v-103h-102v-102h-103v-102h410v-205h-205v-103h205v-102h-410v205h205v102h-205v103h-102v-103h-103v-102h-102v-103h-102v-102h-410zM0 819v103h102v102h205v-410 h-205v205h-102z" />
<glyph unicode="&#xbe;" horiz-adv-x="1331" d="M0 0v205h102v102h103v103h102v102h103v102h-410v103h205v102h-103v103h-102v102h410v-410h102v103h102v102h103v103h102v102h410v-205h-103v-102h-102v-103h-102v-102h-103v-102h103v-205h102v205h205v-410h-205v102h-205v308h-102v-103h-103v-102h-102v-103h-102v-102 h-410z" />
<glyph unicode="&#xbf;" d="M0 102v410h102v102h308v103h307v-205h-103v-102h-204v-205h307v205h409v-308h-102v-102h-922v102h-102zM410 819v205h307v-205h-307z" />
<glyph unicode="&#xc0;" d="M0 0v922h102v102h922v-102h102v-922h-409v410h-307v-410h-410zM307 1331v205h205v-102h102v-103h103v-205h-205v103h-102v102h-103zM410 614h307v205h-307v-205z" />
<glyph unicode="&#xc1;" d="M0 0v922h102v102h922v-102h102v-922h-409v410h-307v-410h-410zM410 614h307v205h-307v-205zM410 1126v205h102v103h102v102h205v-205h-102v-102h-103v-103h-204z" />
<glyph unicode="&#xc2;" d="M0 0v922h102v102h922v-102h102v-922h-409v410h-307v-410h-410zM205 1126v103h102v102h103v103h102v102h102v-102h103v-103h102v-102h103v-103h-205v103h-103v102h-102v-102h-102v-103h-205zM410 614h307v205h-307v-205z" />
<glyph unicode="&#xc3;" d="M0 0v922h102v102h922v-102h102v-922h-409v410h-307v-410h-410zM205 1126v308h102v102h205v-102h102v-103h103v205h205v-307h-103v-103h-205v103h-102v102h-102v-205h-205zM410 614h307v205h-307v-205z" />
<glyph unicode="&#xc4;" d="M0 0v922h102v102h922v-102h102v-922h-409v410h-307v-410h-410zM102 1229v307h308v-307h-308zM410 614h307v205h-307v-205zM717 1229v307h307v-307h-307z" />
<glyph unicode="&#xc5;" d="M0 0v922h102v102h922v-102h102v-922h-409v410h-307v-410h-410zM205 1126v410h717v-410h-717zM410 614h307v205h-307v-205zM410 1229h307v205h-307v-205z" />
<glyph unicode="&#xc6;" horiz-adv-x="1945" d="M0 0v922h102v102h1741v-205h-717v-205h308v-204h-308v-205h717v-205h-1126v410h-307v-410h-410zM410 614h307v205h-307v-205z" />
<glyph unicode="&#xc7;" d="M0 102v820h102v102h922v-102h102v-308h-409v205h-307v-614h307v205h409v-308h-102v-102h-307v-205h-103v-102h-307v102h103v205h-308v102h-102z" />
<glyph unicode="&#xc8;" d="M0 102v820h102v102h1024v-205h-716v-205h307v-204h-307v-205h716v-205h-1024v102h-102zM307 1331v205h205v-102h102v-103h103v-205h-205v103h-102v102h-103z" />
<glyph unicode="&#xc9;" d="M0 102v820h102v102h1024v-205h-716v-205h307v-204h-307v-205h716v-205h-1024v102h-102zM410 1126v205h102v103h102v102h205v-205h-102v-102h-103v-103h-204z" />
<glyph unicode="&#xca;" d="M0 102v820h102v102h1024v-205h-716v-205h307v-204h-307v-205h716v-205h-1024v102h-102zM205 1126v103h102v102h103v103h102v102h102v-102h103v-103h102v-102h103v-103h-205v103h-103v102h-102v-102h-102v-103h-205z" />
<glyph unicode="&#xcb;" d="M0 102v820h102v102h1024v-205h-716v-205h307v-204h-307v-205h716v-205h-1024v102h-102zM102 1229v307h308v-307h-308zM717 1229v307h307v-307h-307z" />
<glyph unicode="&#xcc;" horiz-adv-x="1126" d="M0 0v205h307v614h-307v205h1024v-205h-307v-614h307v-205h-1024zM307 1331v205h205v-102h102v-103h103v-205h-205v103h-102v102h-103z" />
<glyph unicode="&#xcd;" horiz-adv-x="1126" d="M0 0v205h307v614h-307v205h1024v-205h-307v-614h307v-205h-1024zM307 1126v205h103v103h102v102h205v-205h-103v-102h-102v-103h-205z" />
<glyph unicode="&#xce;" horiz-adv-x="1126" d="M0 0v205h307v614h-307v205h1024v-205h-307v-614h307v-205h-1024zM102 1126v103h103v102h102v103h103v102h204v-102h103v-103h102v-102h103v-103h-205v103h-103v102h-204v-102h-103v-103h-205z" />
<glyph unicode="&#xcf;" horiz-adv-x="1126" d="M0 0v205h307v614h-307v205h1024v-205h-307v-614h307v-205h-1024zM102 1229v307h308v-307h-308zM614 1229v307h308v-307h-308z" />
<glyph unicode="&#xd0;" d="M-102 410v204h102v410h922v-102h102v-103h102v-614h-102v-103h-102v-102h-922v410h-102zM410 205h204v102h103v410h-103v102h-204v-205h102v-204h-102v-205z" />
<glyph unicode="&#xd1;" d="M0 0v1024h410v-102h102v-103h102v-102h103v307h409v-1024h-409v307h-103v103h-102v102h-102v-512h-410zM205 1126v308h102v102h205v-102h102v-103h103v205h205v-307h-103v-103h-205v103h-102v102h-102v-205h-205z" />
<glyph unicode="&#xd2;" d="M0 102v820h102v102h922v-102h102v-820h-102v-102h-922v102h-102zM307 1331v205h205v-102h102v-103h103v-205h-205v103h-102v102h-103zM410 205h307v614h-307v-614z" />
<glyph unicode="&#xd3;" d="M0 102v820h102v102h922v-102h102v-820h-102v-102h-922v102h-102zM410 205h307v614h-307v-614zM410 1126v205h102v103h102v102h205v-205h-102v-102h-103v-103h-204z" />
<glyph unicode="&#xd4;" d="M0 102v820h102v102h922v-102h102v-820h-102v-102h-922v102h-102zM205 1126v103h102v102h103v103h102v102h102v-102h103v-103h102v-102h103v-103h-205v103h-103v102h-102v-102h-102v-103h-205zM410 205h307v614h-307v-614z" />
<glyph unicode="&#xd5;" d="M0 102v820h102v102h922v-102h102v-820h-102v-102h-922v102h-102zM205 1126v308h102v102h205v-102h102v-103h103v205h205v-307h-103v-103h-205v103h-102v102h-102v-205h-205zM410 205h307v614h-307v-614z" />
<glyph unicode="&#xd6;" d="M0 102v820h102v102h922v-102h102v-820h-102v-102h-922v102h-102zM102 1229v307h308v-307h-308zM410 205h307v614h-307v-614zM717 1229v307h307v-307h-307z" />
<glyph unicode="&#xd7;" horiz-adv-x="921" d="M0 102v205h102v103h103v204h-103v103h-102v205h205v-103h102v-102h205v102h102v103h205v-205h-102v-103h-103v-204h103v-103h102v-205h-205v103h-102v102h-205v-102h-102v-103h-205z" />
<glyph unicode="&#xd8;" d="M0 0h102v102h-102v820h102v102h717v102h103v103h204v-205h-102v-102h102v-820h-102v-102h-717v-102h-102v-103h-205v205zM410 512h102v205h102v102h-204v-307zM512 205h205v307h-103v-205h-102v-102z" />
<glyph unicode="&#xd9;" d="M0 102v922h410v-819h307v819h409v-922h-102v-102h-922v102h-102zM307 1331v205h205v-102h102v-103h103v-205h-205v103h-102v102h-103z" />
<glyph unicode="&#xda;" d="M0 102v922h410v-819h307v819h409v-922h-102v-102h-922v102h-102zM410 1126v205h102v103h102v102h205v-205h-102v-102h-103v-103h-204z" />
<glyph unicode="&#xdb;" d="M0 102v922h410v-819h307v819h409v-922h-102v-102h-922v102h-102zM205 1126v103h102v102h103v103h102v102h102v-102h103v-103h102v-102h103v-103h-205v103h-103v102h-102v-102h-102v-103h-205z" />
<glyph unicode="&#xdc;" d="M0 102v922h410v-819h307v819h409v-922h-102v-102h-922v102h-102zM102 1229v307h308v-307h-308zM717 1229v307h307v-307h-307z" />
<glyph unicode="&#xdd;" horiz-adv-x="1331" d="M0 614v410h410v-307h102v-103h205v103h102v307h410v-410h-103v-102h-102v-102h-205v-410h-409v410h-205v102h-103v102h-102zM410 1126v205h102v103h102v102h205v-205h-102v-102h-103v-103h-204z" />
<glyph unicode="&#xde;" d="M0 0v1024h410v-205h614v-102h102v-410h-102v-102h-614v-205h-410zM410 410h307v204h-307v-204z" />
<glyph unicode="&#xdf;" d="M0 102v820h102v102h922v-102h102v-308h-102v-204h102v-308h-102v-102h-512v205h205v205h-205v204h205v205h-307v-819h-308v102h-102z" />
<glyph unicode="&#xe0;" d="M0 0v922h102v102h922v-102h102v-922h-409v410h-307v-410h-410zM307 1331v205h205v-102h102v-103h103v-205h-205v103h-102v102h-103zM410 614h307v205h-307v-205z" />
<glyph unicode="&#xe1;" d="M0 0v922h102v102h922v-102h102v-922h-409v410h-307v-410h-410zM410 614h307v205h-307v-205zM410 1126v205h102v103h102v102h205v-205h-102v-102h-103v-103h-204z" />
<glyph unicode="&#xe2;" d="M0 0v922h102v102h922v-102h102v-922h-409v410h-307v-410h-410zM205 1126v103h102v102h103v103h102v102h102v-102h103v-103h102v-102h103v-103h-205v103h-103v102h-102v-102h-102v-103h-205zM410 614h307v205h-307v-205z" />
<glyph unicode="&#xe3;" d="M0 0v922h102v102h922v-102h102v-922h-409v410h-307v-410h-410zM205 1126v308h102v102h205v-102h102v-103h103v205h205v-307h-103v-103h-205v103h-102v102h-102v-205h-205zM410 614h307v205h-307v-205z" />
<glyph unicode="&#xe4;" d="M0 0v922h102v102h922v-102h102v-922h-409v410h-307v-410h-410zM102 1229v307h308v-307h-308zM410 614h307v205h-307v-205zM717 1229v307h307v-307h-307z" />
<glyph unicode="&#xe5;" d="M0 0v922h102v102h922v-102h102v-922h-409v410h-307v-410h-410zM205 1126v410h717v-410h-717zM410 614h307v205h-307v-205zM410 1229h307v205h-307v-205z" />
<glyph unicode="&#xe6;" horiz-adv-x="1945" d="M0 0v922h102v102h1741v-205h-717v-205h308v-204h-308v-205h717v-205h-1126v410h-307v-410h-410zM410 614h307v205h-307v-205z" />
<glyph unicode="&#xe7;" d="M0 102v820h102v102h922v-102h102v-308h-409v205h-307v-614h307v205h409v-308h-102v-102h-307v-205h-103v-102h-307v102h103v205h-308v102h-102z" />
<glyph unicode="&#xe8;" d="M0 102v820h102v102h1024v-205h-716v-205h307v-204h-307v-205h716v-205h-1024v102h-102zM307 1331v205h205v-102h102v-103h103v-205h-205v103h-102v102h-103z" />
<glyph unicode="&#xe9;" d="M0 102v820h102v102h1024v-205h-716v-205h307v-204h-307v-205h716v-205h-1024v102h-102zM410 1126v205h102v103h102v102h205v-205h-102v-102h-103v-103h-204z" />
<glyph unicode="&#xea;" d="M0 102v820h102v102h1024v-205h-716v-205h307v-204h-307v-205h716v-205h-1024v102h-102zM205 1126v103h102v102h103v103h102v102h102v-102h103v-103h102v-102h103v-103h-205v103h-103v102h-102v-102h-102v-103h-205z" />
<glyph unicode="&#xeb;" d="M0 102v820h102v102h1024v-205h-716v-205h307v-204h-307v-205h716v-205h-1024v102h-102zM102 1229v307h308v-307h-308zM717 1229v307h307v-307h-307z" />
<glyph unicode="&#xec;" horiz-adv-x="1126" d="M0 0v205h307v614h-307v205h1024v-205h-307v-614h307v-205h-1024zM307 1331v205h205v-102h102v-103h103v-205h-205v103h-102v102h-103z" />
<glyph unicode="&#xed;" horiz-adv-x="1126" d="M0 0v205h307v614h-307v205h1024v-205h-307v-614h307v-205h-1024zM307 1126v205h103v103h102v102h205v-205h-103v-102h-102v-103h-205z" />
<glyph unicode="&#xee;" horiz-adv-x="1126" d="M0 0v205h307v614h-307v205h1024v-205h-307v-614h307v-205h-1024zM102 1126v103h103v102h102v103h103v102h204v-102h103v-103h102v-102h103v-103h-205v103h-103v102h-204v-102h-103v-103h-205z" />
<glyph unicode="&#xef;" horiz-adv-x="1126" d="M0 0v205h307v614h-307v205h1024v-205h-307v-614h307v-205h-1024zM102 1229v307h308v-307h-308zM614 1229v307h308v-307h-308z" />
<glyph unicode="&#xf0;" d="M-102 410v204h102v410h922v-102h102v-103h102v-614h-102v-103h-102v-102h-922v410h-102zM410 205h204v102h103v410h-103v102h-204v-205h102v-204h-102v-205z" />
<glyph unicode="&#xf1;" d="M0 0v1024h410v-102h102v-103h102v-102h103v307h409v-1024h-409v307h-103v103h-102v102h-102v-512h-410zM205 1126v308h102v102h205v-102h102v-103h103v205h205v-307h-103v-103h-205v103h-102v102h-102v-205h-205z" />
<glyph unicode="&#xf2;" d="M0 102v820h102v102h922v-102h102v-820h-102v-102h-922v102h-102zM307 1331v205h205v-102h102v-103h103v-205h-205v103h-102v102h-103zM410 205h307v614h-307v-614z" />
<glyph unicode="&#xf3;" d="M0 102v820h102v102h922v-102h102v-820h-102v-102h-922v102h-102zM410 205h307v614h-307v-614zM410 1126v205h102v103h102v102h205v-205h-102v-102h-103v-103h-204z" />
<glyph unicode="&#xf4;" d="M0 102v820h102v102h922v-102h102v-820h-102v-102h-922v102h-102zM205 1126v103h102v102h103v103h102v102h102v-102h103v-103h102v-102h103v-103h-205v103h-103v102h-102v-102h-102v-103h-205zM410 205h307v614h-307v-614z" />
<glyph unicode="&#xf5;" d="M0 102v820h102v102h922v-102h102v-820h-102v-102h-922v102h-102zM205 1126v308h102v102h205v-102h102v-103h103v205h205v-307h-103v-103h-205v103h-102v102h-102v-205h-205zM410 205h307v614h-307v-614z" />
<glyph unicode="&#xf6;" d="M0 102v820h102v102h922v-102h102v-820h-102v-102h-922v102h-102zM102 1229v307h308v-307h-308zM410 205h307v614h-307v-614zM717 1229v307h307v-307h-307z" />
<glyph unicode="&#xf7;" d="M0 410v204h1126v-204h-1126zM410 0v307h307v-307h-307zM410 717v307h307v-307h-307z" />
<glyph unicode="&#xf8;" d="M0 0h102v102h-102v820h102v102h717v102h103v103h204v-205h-102v-102h102v-820h-102v-102h-717v-102h-102v-103h-205v205zM410 512h102v205h102v102h-204v-307zM512 205h205v307h-103v-205h-102v-102z" />
<glyph unicode="&#xf9;" d="M0 102v922h410v-819h307v819h409v-922h-102v-102h-922v102h-102zM307 1331v205h205v-102h102v-103h103v-205h-205v103h-102v102h-103z" />
<glyph unicode="&#xfa;" d="M0 102v922h410v-819h307v819h409v-922h-102v-102h-922v102h-102zM410 1126v205h102v103h102v102h205v-205h-102v-102h-103v-103h-204z" />
<glyph unicode="&#xfb;" d="M0 102v922h410v-819h307v819h409v-922h-102v-102h-922v102h-102zM205 1126v103h102v102h103v103h102v102h102v-102h103v-103h102v-102h103v-103h-205v103h-103v102h-102v-102h-102v-103h-205z" />
<glyph unicode="&#xfc;" d="M0 102v922h410v-819h307v819h409v-922h-102v-102h-922v102h-102zM102 1229v307h308v-307h-308zM717 1229v307h307v-307h-307z" />
<glyph unicode="&#xfd;" horiz-adv-x="1331" d="M0 614v410h410v-307h102v-103h205v103h102v307h410v-410h-103v-102h-102v-102h-205v-410h-409v410h-205v102h-103v102h-102zM410 1126v205h102v103h102v102h205v-205h-102v-102h-103v-103h-204z" />
<glyph unicode="&#xfe;" d="M0 0v1024h410v-205h614v-102h102v-410h-102v-102h-614v-205h-410zM410 410h307v204h-307v-204z" />
<glyph unicode="&#xff;" horiz-adv-x="1331" d="M0 614v410h410v-307h102v-103h205v103h102v307h410v-410h-103v-102h-102v-102h-205v-410h-409v410h-205v102h-103v102h-102zM205 1229v307h307v-307h-307zM717 1229v307h307v-307h-307z" />
<glyph unicode="&#x152;" horiz-adv-x="1945" d="M0 102v820h102v102h1741v-205h-717v-205h308v-204h-308v-205h717v-205h-1741v102h-102zM410 205h307v614h-307v-614z" />
<glyph unicode="&#x153;" horiz-adv-x="1945" d="M0 102v820h102v102h1741v-205h-717v-205h308v-204h-308v-205h717v-205h-1741v102h-102zM410 205h307v614h-307v-614z" />
<glyph unicode="&#x178;" horiz-adv-x="1331" d="M0 614v410h410v-307h102v-103h205v103h102v307h410v-410h-103v-102h-102v-102h-205v-410h-409v410h-205v102h-103v102h-102zM205 1229v307h307v-307h-307zM717 1229v307h307v-307h-307z" />
<glyph unicode="&#x2c6;" d="M205 1126v103h102v102h103v103h102v102h102v-102h103v-103h102v-102h103v-103h-205v103h-103v102h-102v-102h-102v-103h-205z" />
<glyph unicode="&#x2dc;" d="M205 1126v308h102v102h205v-102h102v-103h103v205h205v-307h-103v-103h-205v103h-102v102h-102v-205h-205z" />
<glyph unicode="&#x2000;" horiz-adv-x="768" />
<glyph unicode="&#x2001;" horiz-adv-x="1536" />
<glyph unicode="&#x2002;" horiz-adv-x="768" />
<glyph unicode="&#x2003;" horiz-adv-x="1536" />
<glyph unicode="&#x2004;" horiz-adv-x="512" />
<glyph unicode="&#x2005;" horiz-adv-x="384" />
<glyph unicode="&#x2006;" horiz-adv-x="256" />
<glyph unicode="&#x2007;" horiz-adv-x="256" />
<glyph unicode="&#x2008;" horiz-adv-x="192" />
<glyph unicode="&#x2009;" horiz-adv-x="307" />
<glyph unicode="&#x200a;" horiz-adv-x="85" />
<glyph unicode="&#x2010;" d="M0 410v204h1126v-204h-1126z" />
<glyph unicode="&#x2011;" d="M0 410v204h1126v-204h-1126z" />
<glyph unicode="&#x2012;" d="M0 410v204h1126v-204h-1126z" />
<glyph unicode="&#x2013;" horiz-adv-x="614" d="M0 410v204h410v-204h-410z" />
<glyph unicode="&#x2014;" d="M0 410v204h1126v-204h-1126z" />
<glyph unicode="&#x2018;" horiz-adv-x="512" d="M0 614v410h205v-205h205v-205h-410z" />
<glyph unicode="&#x2019;" horiz-adv-x="512" d="M0 819v205h410v-410h-205v205h-205z" />
<glyph unicode="&#x201a;" horiz-adv-x="409" d="M0 -201v406h307v-406h-307z" />
<glyph unicode="&#x201c;" horiz-adv-x="1024" d="M0 614v410h205v-205h205v-205h-410zM512 614v410h205v-205h205v-205h-410z" />
<glyph unicode="&#x201d;" horiz-adv-x="1024" d="M0 819v205h410v-410h-205v205h-205zM512 819v205h410v-410h-205v205h-205z" />
<glyph unicode="&#x201e;" horiz-adv-x="819" d="M0 -201v406h307v-406h-307zM410 -201v406h307v-406h-307z" />
<glyph unicode="&#x2022;" horiz-adv-x="819" d="M0 410v204h102v103h103v102h102v103h103v-103h102v-102h102v-103h103v-204h-103v-103h-102v-102h-102v-103h-103v103h-102v102h-103v103h-102z" />
<glyph unicode="&#x2026;" horiz-adv-x="921" d="M0 0v205h205v-205h-205zM307 0v205h205v-205h-205zM614 0v205h205v-205h-205z" />
<glyph unicode="&#x202f;" horiz-adv-x="307" />
<glyph unicode="&#x2039;" horiz-adv-x="614" d="M0 410v204h102v103h103v102h102v103h205v-205h-102v-103h-103v-204h103v-103h102v-205h-205v103h-102v102h-103v103h-102z" />
<glyph unicode="&#x203a;" horiz-adv-x="614" d="M0 102v205h102v103h103v204h-103v103h-102v205h205v-103h102v-102h103v-103h102v-204h-102v-103h-103v-102h-102v-103h-205z" />
<glyph unicode="&#x205f;" horiz-adv-x="384" />
<glyph unicode="&#x20ac;" d="M0 102v820h102v102h922v-102h102v-308h-409v-204h409v-308h-102v-102h-922v102h-102zM410 205h307v205h-307v-205zM410 614h307v205h-307v-205z" />
<glyph unicode="&#x2122;" horiz-adv-x="1536" d="M0 819v205h614v-205h-204v-307h-205v307h-205zM717 512v512h205v-102h102v-103h102v103h103v102h205v-512h-205v205h-103v-103h-102v103h-102v-205h-205z" />
<glyph unicode="&#x25fc;" horiz-adv-x="1024" d="M0 0v1024h1024v-1024h-1024z" />
</font>
</defs>
</svg>
